<svg xmlns="http://www.w3.org/2000/svg" width="95" height="120" viewBox="0 0 95 120">
  <path id="Color_Overlay" data-name="Color Overlay" d="M969.976,208A17.451,17.451,0,0,1,952.6,190.584V178.973h4.732v11.611a12.691,12.691,0,0,0,12.643,12.673h59.648a12.691,12.691,0,0,0,12.643-12.673V107.433a12.668,12.668,0,0,0-5.792-10.654l2.578-3.965A17.453,17.453,0,0,1,1047,107.433v83.151A17.452,17.452,0,0,1,1029.624,208ZM953.8,176.071a1.245,1.245,0,0,1-.918-.247,1.4,1.4,0,0,1-.247-.992v-3.009a1.222,1.222,0,0,1,.176-.707.772.772,0,0,1,.565-.248l1.448-.176a8.659,8.659,0,0,1-2.083-2.655,7.767,7.767,0,0,1-.742-3.5,5.184,5.184,0,0,1,2.79-4.991,7.624,7.624,0,0,1-2.79-6.265,6.305,6.305,0,0,1,1.766-4.708,7.424,7.424,0,0,1,5.332-1.7h11.23a1.946,1.946,0,0,1,1.378.425,1.993,1.993,0,0,1,.424,1.416v2.549a1.5,1.5,0,0,1-1.731,1.805H959.557a3.418,3.418,0,0,0-2.225.6,2.2,2.2,0,0,0-.67,1.77,2.8,2.8,0,0,0,.883,2.159,3.289,3.289,0,0,0,2.366.85h10.454a1.758,1.758,0,0,1,1.307.425,2,2,0,0,1,.423,1.416v2.3a2.037,2.037,0,0,1-.423,1.451,1.758,1.758,0,0,1-1.307.425H959.381a3.285,3.285,0,0,0-2.048.567,2.093,2.093,0,0,0-.67,1.7,3.018,3.018,0,0,0,.918,2.265,3.25,3.25,0,0,0,2.4.885h10.383a1.754,1.754,0,0,1,1.307.39,1.885,1.885,0,0,1,.423,1.416v2.513a2.039,2.039,0,0,1-.423,1.452,1.758,1.758,0,0,1-1.307.425Zm21.578-31.717-2.4-1.381c-.318-.176-.459-.354-.459-.566a1.125,1.125,0,0,1,.247-.637,7.478,7.478,0,0,0,.671-1.274,4.29,4.29,0,0,0,.211-1.416,2.164,2.164,0,0,0-.635-1.664,5.691,5.691,0,0,0-2.048-1.132l-17.023,8.035a1.435,1.435,0,0,1-.635.176c-.459,0-.706-.248-.706-.743v-4.708a1.365,1.365,0,0,1,.211-.85,1.573,1.573,0,0,1,.706-.5l10.984-4.46-10.984-4.46a1.652,1.652,0,0,1-.706-.495,1.365,1.365,0,0,1-.211-.85v-4.708c0-.5.247-.743.706-.743a1.435,1.435,0,0,1,.635.176l16.14,7.611a40.089,40.089,0,0,1,4.873,2.654,7.973,7.973,0,0,1,2.578,2.655,7.612,7.612,0,0,1,.883,3.646,8.3,8.3,0,0,1-1.836,5.487.737.737,0,0,1-.6.354A1.517,1.517,0,0,1,975.38,144.354Zm-21.613-25.026a1.745,1.745,0,0,0-.813-.212,1.027,1.027,0,0,0-.353.071v-28.6a1.993,1.993,0,0,1,.459-1.452,2.059,2.059,0,0,1,1.518-.495h11.054q11.39,0,11.372,10.194c0,6.761-3.814,10.159-11.372,10.159h-5.756v13.2Zm6.145-15.717h5.226c3.073,0,4.591-1.593,4.591-4.779s-1.518-4.779-4.591-4.779h-5.226Zm59.083,15.115a15.308,15.308,0,0,1-5.121-2.053c-.459-.319-.67-.637-.67-.885a1.343,1.343,0,0,1,.211-.637l1.8-2.867c.177-.284.354-.46.565-.46a1.439,1.439,0,0,1,.671.283,15.6,15.6,0,0,0,3.743,1.522,16.11,16.11,0,0,0,4.273.567,7.279,7.279,0,0,0,3.814-.814,2.894,2.894,0,0,0,1.237-2.584,3.049,3.049,0,0,0-.6-1.947,5.167,5.167,0,0,0-1.766-1.345c-.778-.389-1.978-.885-3.6-1.522a34.92,34.92,0,0,1-4.8-2.159,9.689,9.689,0,0,1-3.213-2.867,7.071,7.071,0,0,1-1.272-4.283,7.547,7.547,0,0,1,3.038-6.443A13.322,13.322,0,0,1,1025.351,88c4.379,0,7.735.814,10.066,2.478.459.354.671.637.671.885a1.343,1.343,0,0,1-.212.637l-1.8,2.867c-.177.284-.354.46-.565.46a1.439,1.439,0,0,1-.671-.283,11.781,11.781,0,0,0-6.533-1.77c-3.179,0-4.768,1.168-4.768,3.469a2.9,2.9,0,0,0,.565,1.876,4.49,4.49,0,0,0,1.519,1.239,27.068,27.068,0,0,0,3.037,1.31l1.237.495a35.119,35.119,0,0,1,5.085,2.408,8.259,8.259,0,0,1,2.861,2.761,8,8,0,0,1,.988,4.212,7.337,7.337,0,0,1-2.9,6.125c-1.943,1.522-4.733,2.265-8.37,2.265A30.824,30.824,0,0,1,1018.994,118.725Zm-34.892-3.4c-2.649-2.76-3.955-6.619-3.955-11.61s1.307-8.85,3.955-11.611S990.565,88,995.58,88c4.98,0,8.794,1.38,11.443,4.106,2.649,2.761,3.956,6.619,3.956,11.611s-1.307,8.85-3.956,11.61-6.463,4.107-11.443,4.107C990.565,119.434,986.751,118.088,984.1,115.327Zm5.368-19.434c-1.377,1.77-2.047,4.354-2.047,7.824s.67,6.052,2.047,7.823a7.26,7.26,0,0,0,6.11,2.619,7.188,7.188,0,0,0,6.074-2.619c1.378-1.77,2.048-4.354,2.048-7.823s-.67-6.053-2.048-7.824a7.191,7.191,0,0,0-6.074-2.619A7.27,7.27,0,0,0,989.47,95.893Z" transform="translate(-952 -88)" fill="#fff"/>
</svg>
